<?xml version="1.0" encoding="utf-8"?>
<svg width="24" height="24" viewBox="-9.113 -6.159 39.614 18.354" xmlns="http://www.w3.org/2000/svg" xmlns:bx="https://boxy-svg.com">
  <defs>
    <style bx:fonts="Aldrich">@import url(https://fonts.googleapis.com/css2?family=Aldrich%3Aital%2Cwght%400%2C400&amp;display=swap);</style>
    <style bx:fonts="Alata">@import url(https://fonts.googleapis.com/css2?family=Alata%3Aital%2Cwght%400%2C400&amp;display=swap);</style>
  </defs>
  <path d="M 17.436 0.41 L 16.64 0.047 L 16.64 1.959 L 17.436 1.573 L 17.436 0.41 Z M 21.482 4.284 L 22.778 6.606 L 20.646 6.606 L 19.353 4.284 L 21.482 4.284 Z M 24.605 0.798 L 24.605 2.344 L 26.198 3.121 L 26.198 0.025 L 24.605 0.798 Z M 23.012 -0.363 L 19.029 -0.363 C 18.591 -0.363 18.233 -0.016 18.233 0.41 L 18.233 2.733 C 18.233 3.162 18.591 3.509 19.029 3.509 L 23.012 3.509 C 23.451 3.509 23.807 3.162 23.807 2.733 L 23.807 0.41 C 23.807 -0.016 23.451 -0.363 23.012 -0.363 Z M 23.012 1.573 L 19.029 1.573 L 19.029 0.41 L 23.012 0.41 L 23.012 1.573 Z" style=""/>
  <text style="fill: rgb(51, 51, 51); font-family: Aldrich; font-size: 4.1px; font-weight: 700; white-space: pre;" x="6.822" y="5.04" transform="matrix(2.47685, 0, 0, 2.299407, -21.95274, -5.065008)">SEC</text>
  <text style="fill: rgb(51, 51, 51); font-family: Alata; font-size: 1.31429px; white-space: pre;" transform="matrix(1.498428, 0, 0, 1.521739, -4.925944, -1.083463)" x="18.837" y="5.064">in R</text>
  <path d="M 1.695 -5.082 C 1.073 -5.108 0.446 -5.132 -0.175 -5.128 C -1.421 -5.12 -2.478 -5.039 -3.246 -4.624 C -4.216 -4.196 -4.789 -3.592 -5.197 -2.803 C -5.604 -2.013 -5.768 -1.134 -5.766 -0.126 C -5.788 1.899 -5.058 3.861 -3.875 5.15 C -1.816 7.592 2.091 8.65 5.729 8.981 C 11.945 9.571 18.03 9.438 23.912 7.855 C 25.571 7.414 27.125 6.743 28.725 6.042 C 30.56 5.257 31.828 4.271 32.149 3.228 C 32.324 2.79 32.325 2.634 32.009 2.267 C 31.678 1.795 31.103 1.409 29.925 1.013 C 26.677 -0.16 22.756 -0.076 19.245 -0.076 L 18.745 -0.076 L 18.745 -2.076 L 19.245 -2.076 C 22.744 -2.076 27.001 -2.102 30.593 -0.873 C 31.997 -0.363 33.064 0.354 33.618 1.08 C 34.183 1.905 34.307 3.037 34.038 3.883 C 33.472 5.403 31.586 6.952 29.527 7.875 C 27.918 8.58 26.219 9.301 24.427 9.787 C 18.31 11.404 11.875 11.567 5.543 10.973 C 1.718 10.607 -2.85 9.208 -5.378 6.467 C -6.749 4.871 -7.755 2.249 -7.766 -0.131 C -7.739 -2.527 -6.552 -5.091 -4.112 -6.427 C -3 -6.94 -1.527 -7.117 -0.189 -7.128 C 0.477 -7.132 1.153 -7.107 1.778 -7.081 C 2.398 -7.055 3.51 -7.029 3.51 -7.029 C 3.622 -7.003 3.81 -6.937 3.867 -6.879 C 3.903 -6.842 3.949 -6.77 3.963 -6.741 C 3.979 -6.707 3.995 -6.652 3.999 -6.632 C 4.003 -6.612 4.007 -6.581 4.008 -6.571 C 4.009 -6.56 4.01 -6.544 4.01 -6.539 C 4.01 -6.533 4.01 -6.525 4.01 -6.522 C 4.01 -6.519 4.01 -6.514 4.01 -6.512 C 4.01 -6.509 4.01 -6.504 4.009 -6.5 C 4.009 -6.492 4.009 -6.48 4.008 -6.466 C 4.007 -6.438 4.005 -6.399 4.003 -6.352 C 3.999 -6.258 3.994 -6.133 3.989 -6.008 C 3.983 -5.883 3.978 -5.758 3.974 -5.664 C 3.972 -5.617 3.97 -5.579 3.969 -5.552 C 3.969 -5.538 3.968 -5.529 3.968 -5.522 C 3.968 -5.519 3.968 -5.518 3.968 -5.518 C 3.968 -5.518 3.968 -5.521 3.968 -5.523 C 3.968 -5.526 3.968 -5.534 3.968 -5.539 C 3.968 -5.544 3.967 -5.56 3.966 -5.57 C 3.965 -5.581 3.962 -5.611 3.957 -5.631 C 3.954 -5.65 3.938 -5.704 3.923 -5.736 C 3.89 -5.808 3.651 -5.95 3.48 -6.029 C 3.48 -6.029 3.48 -6.029 3.48 -6.029 L 3.468 -5.029 C 3.462 -5.029 3.462 -5.029 3.456 -5.029 C 3.456 -5.029 2.323 -5.056 1.695 -5.082 Z M 0.919 -6.112 C 0.554 -6.123 0.184 -6.13 -0.183 -6.128 C -1.467 -6.121 -2.726 -5.992 -3.678 -5.525 C -3.675 -5.527 -3.671 -5.529 -3.667 -5.531 C -2.716 -5.993 -1.467 -6.118 -0.183 -6.128 C 0.185 -6.13 0.554 -6.123 0.919 -6.112 Z M -4.169 6.283 C -1.796 8.557 2.142 9.651 5.637 9.977 C 10.213 10.409 14.78 10.447 19.246 9.815 C 14.78 10.447 10.211 10.409 5.635 9.977 C 2.144 9.651 -1.793 8.553 -4.169 6.283 Z M 24.555 8.713 C 26.138 8.253 27.641 7.61 29.125 6.959 C 31.074 6.104 32.686 4.849 33.093 3.556 C 32.614 4.825 31.072 6.105 29.123 6.96 C 27.639 7.61 26.139 8.253 24.555 8.713 Z M 32.811 1.67 C 32.382 1.066 31.55 0.524 30.257 0.069 C 26.833 -1.132 23.133 -1.078 19.745 -1.076 L 19.745 -1.076 C 23.132 -1.078 26.837 -1.13 30.261 0.071 C 31.556 0.526 32.36 1.083 32.811 1.67 Z M 32.814 1.675 C 33.225 2.295 33.294 2.91 33.094 3.555 C 33.337 2.923 33.283 2.252 32.814 1.675 Z" style="fill: none;"/>
</svg>