<?xml version="1.0" encoding="utf-8"?>
<svg width="24" height="24" viewBox="-4.774 -1.155 31.935 8.95" xmlns="http://www.w3.org/2000/svg" xmlns:bx="https://boxy-svg.com">
  <defs>
    <style bx:fonts="Aldrich">@import url(https://fonts.googleapis.com/css2?family=Aldrich%3Aital%2Cwght%400%2C400&amp;display=swap);</style>
    <style bx:fonts="Alata">@import url(https://fonts.googleapis.com/css2?family=Alata%3Aital%2Cwght%400%2C400&amp;display=swap);</style>
  </defs>
  <path d="M 17.436 0.41 L 16.64 0.047 L 16.64 1.959 L 17.436 1.573 L 17.436 0.41 Z M 21.482 4.284 L 22.778 6.606 L 20.646 6.606 L 19.353 4.284 L 21.482 4.284 Z M 24.605 0.798 L 24.605 2.344 L 26.198 3.121 L 26.198 0.025 L 24.605 0.798 Z M 23.012 -0.363 L 19.029 -0.363 C 18.591 -0.363 18.233 -0.016 18.233 0.41 L 18.233 2.733 C 18.233 3.162 18.591 3.509 19.029 3.509 L 23.012 3.509 C 23.451 3.509 23.807 3.162 23.807 2.733 L 23.807 0.41 C 23.807 -0.016 23.451 -0.363 23.012 -0.363 Z M 23.012 1.573 L 19.029 1.573 L 19.029 0.41 L 23.012 0.41 L 23.012 1.573 Z" style=""/>
  <text style="fill: rgb(51, 51, 51); font-family: Aldrich; font-size: 4.1px; font-weight: 700; white-space: pre;" x="6.822" y="5.04" transform="matrix(2.47685, 0, 0, 2.299407, -21.95274, -5.065008)">SEC</text>
  <text style="fill: rgb(51, 51, 51); font-family: Alata; font-size: 1.31429px; white-space: pre;" transform="matrix(1.498428, 0, 0, 1.521739, -4.925944, -1.083463)" x="18.837" y="5.064">in R</text>
</svg>